<?xml version="1.0" standalone="no"?>
<!DOCTYPE svg PUBLIC "-//W3C//DTD SVG 20010904//EN"
 "http://www.w3.org/TR/2001/REC-SVG-20010904/DTD/svg10.dtd">
<svg version="1.0" xmlns="http://www.w3.org/2000/svg"
 width="256.000000pt" height="256.000000pt" viewBox="0 0 256.000000 256.000000"
 preserveAspectRatio="xMidYMid meet">
<metadata>
Created by potrace 1.14, written by Peter Selinger 2001-2017
</metadata>
<g transform="translate(0.000000,256.000000) scale(0.100000,-0.100000)"
fill="#000000" stroke="none">
<path d="M847 2343 c-4 -7 -100 -374 -302 -1161 -30 -118 -55 -221 -55 -230 1
-11 186 -155 477 -372 419 -312 481 -355 512 -355 35 0 37 2 55 58 13 41 23
57 36 57 10 0 22 6 29 13 6 8 57 177 115 378 57 200 152 529 210 730 58 202
106 374 106 382 0 9 -7 23 -16 32 -15 15 -15 23 6 101 28 102 21 128 -37 143
-21 5 -166 37 -323 70 -157 33 -393 83 -524 110 -240 51 -281 57 -289 44z
m285 -73 c128 -28 285 -62 348 -75 157 -34 193 -46 115 -39 -111 10 -155 17
-155 24 0 4 -21 11 -46 15 -65 9 -97 16 -199 40 -38 9 -106 25 -150 35 -44 11
-90 22 -102 26 -14 4 -23 2 -23 -5 0 -6 -11 -11 -23 -11 -29 0 -46 -33 -54
-105 -3 -27 -9 -52 -13 -55 -7 -4 -110 -378 -110 -396 0 -4 -2 -5 -6 -2 -3 3
29 137 70 297 42 160 76 293 76 296 0 11 49 3 272 -45z m-22 -50 c25 -6 55
-13 68 -15 13 -3 20 -10 17 -15 -6 -10 16 -14 63 -12 12 1 22 -3 22 -8 0 -4 9
-6 21 -3 12 3 24 0 28 -6 9 -15 118 -44 137 -37 7 3 15 0 17 -7 3 -9 9 -9 25
0 23 14 52 8 52 -11 0 -16 175 -56 213 -49 17 3 27 1 27 -7 0 -7 -6 -10 -14
-7 -10 4 -18 -4 -25 -21 -9 -25 -9 -25 -10 -5 -1 15 -9 24 -23 28 -92 21 -164
32 -177 28 -9 -4 -12 -2 -8 2 7 9 -174 58 -260 71 -33 5 -43 3 -43 -7 0 -8 -9
-20 -20 -27 -11 -7 -20 -18 -20 -25 0 -13 72 -40 143 -53 24 -4 34 -10 27 -14
-7 -4 -45 3 -84 17 -66 22 -141 45 -211 62 -16 4 -39 11 -51 15 -19 6 -22 -1
-39 -69 -10 -41 -21 -73 -23 -70 -2 2 4 38 14 79 l18 76 40 -7 c23 -3 51 -10
64 -14 25 -9 28 -4 10 16 -7 7 -21 22 -30 34 -18 22 -78 30 -78 11 0 -5 -9
-10 -20 -10 -13 0 -20 -7 -20 -20 0 -11 -4 -20 -8 -20 -4 0 -13 -26 -20 -58
-22 -106 -42 -162 -58 -162 -11 0 -14 6 -9 23 4 12 9 30 11 40 3 10 0 17 -8
17 -8 1 -5 6 7 16 16 12 17 16 6 23 -11 7 -10 11 4 19 12 6 16 17 12 31 -3 12
2 36 11 54 9 17 16 48 17 68 1 61 16 70 83 53 31 -8 77 -18 102 -24z m583 -77
c-7 -2 -19 -2 -25 0 -7 3 -2 5 12 5 14 0 19 -2 13 -5z m44 -9 c-3 -3 -12 -4
-19 -1 -8 3 -5 6 6 6 11 1 17 -2 13 -5z m113 -24 c22 -7 21 -8 -12 -9 -20 -1
-40 4 -43 9 -7 12 19 12 55 0z m133 -56 c-2 -16 -14 -63 -27 -104 -21 -64 -24
-70 -25 -40 0 19 6 53 14 75 20 56 19 92 -2 98 -10 3 -4 4 12 3 26 -3 30 -7
28 -32z m-519 -123 c-4 -17 -9 -30 -11 -27 -3 2 -2 19 2 36 4 17 9 30 11 27 2
-2 1 -18 -2 -36z m-608 -8 c-10 -10 -19 5 -10 18 6 11 8 11 12 0 2 -7 1 -15
-2 -18z m274 12 c19 -7 28 -13 20 -13 -8 0 -31 6 -50 13 -19 7 -28 13 -20 13
8 0 31 -6 50 -13z m317 -67 c-3 -8 -6 -5 -6 6 -1 11 2 17 5 13 3 -3 4 -12 1
-19z m-10 -34 c-3 -3 -12 -4 -19 -1 -8 3 -5 6 6 6 11 1 17 -2 13 -5z m273 -13
c0 -6 -4 -13 -10 -16 -5 -3 -10 1 -10 9 0 9 5 16 10 16 6 0 10 -4 10 -9z m-45
-132 c-8 -19 -13 -26 -11 -17 3 9 8 34 13 55 5 26 8 32 11 17 2 -12 -4 -37
-13 -55z m-970 -59 c-10 -39 -19 -69 -21 -67 -3 2 3 36 13 75 9 40 19 70 21
67 2 -2 -3 -36 -13 -75z m205 -70 c0 -15 -19 -79 -25 -88 -5 -6 -75 32 -75 42
0 6 5 5 12 -2 7 -7 21 -12 32 -12 18 1 17 3 -6 16 -30 16 -31 18 -22 51 4 13
11 20 17 16 6 -4 8 0 4 10 -6 15 -3 15 28 0 19 -9 35 -24 35 -33z m57 -32 c-6
-21 -5 -22 7 -5 12 15 18 16 40 6 29 -13 33 -37 15 -88 -12 -35 -18 -37 -59
-16 -32 17 -35 30 -19 88 11 39 25 53 16 15z m710 0 c-3 -8 -6 -5 -6 6 -1 11
2 17 5 13 3 -3 4 -12 1 -19z m-1010 -40 c-3 -7 -5 -2 -5 12 0 14 2 19 5 13 2
-7 2 -19 0 -25z m69 -46 c-11 -10 -15 4 -8 28 l7 25 3 -23 c2 -13 1 -26 -2
-30z m415 27 c26 -13 39 -25 35 -34 -2 -7 -8 -30 -12 -49 -3 -20 -10 -39 -15
-42 -13 -8 -50 6 -44 17 3 5 -2 6 -11 2 -12 -4 -15 -3 -10 5 5 8 1 10 -10 5
-15 -5 -16 -1 -10 31 9 45 23 86 31 86 3 0 24 -9 46 -21z m506 -11 c-3 -8 -6
-5 -6 6 -1 11 2 17 5 13 3 -3 4 -12 1 -19z m-349 -15 c-10 -2 -28 -2 -40 0
-13 2 -5 4 17 4 22 1 32 -1 23 -4z m-661 -25 c-3 -8 -6 -5 -6 6 -1 11 2 17 5
13 3 -3 4 -12 1 -19z m189 6 c32 -15 34 -20 28 -48 -4 -17 -10 -41 -15 -54 -8
-22 -10 -22 -38 -7 -16 8 -32 19 -36 24 -6 10 14 101 22 101 3 0 21 -7 39 -16z
m527 9 c-7 -2 -19 -2 -25 0 -7 3 -2 5 12 5 14 0 19 -2 13 -5z m90 -10 c-7 -2
-19 -2 -25 0 -7 3 -2 5 12 5 14 0 19 -2 13 -5z m90 -10 c-13 -2 -35 -2 -50 0
-16 2 -5 4 22 4 28 0 40 -2 28 -4z m-906 -35 c-3 -8 -6 -5 -6 6 -1 11 2 17 5
13 3 -3 4 -12 1 -19z m351 -36 c11 -8 11 -17 1 -53 -7 -24 -15 -48 -19 -52
-12 -14 -81 33 -76 52 3 9 8 30 12 46 4 17 9 33 11 37 4 7 37 -7 71 -30z m639
6 c-3 -8 -6 -5 -6 6 -1 11 2 17 5 13 3 -3 4 -12 1 -19z m-1000 -10 c-3 -8 -6
-5 -6 6 -1 11 2 17 5 13 3 -3 4 -12 1 -19z m474 -48 c38 -20 39 -22 33 -58 -4
-20 -11 -47 -15 -60 l-9 -23 -43 23 c-37 21 -42 28 -40 55 3 35 19 83 28 83 3
0 24 -9 46 -20z m-309 -31 c27 -20 29 -25 23 -63 -4 -22 -11 -45 -15 -50 -9
-9 -70 23 -70 37 0 16 22 97 27 97 3 0 18 -10 35 -21z m-101 -12 c-10 -9 -11
-8 -5 6 3 10 9 15 12 12 3 -3 0 -11 -7 -18z m764 -17 c3 -5 -1 -10 -9 -10 -9
0 -16 5 -16 10 0 6 4 10 9 10 6 0 13 -4 16 -10z m-775 -42 c0 -12 -1 -19 -3
-17 -1 2 -9 12 -16 22 -12 14 -11 17 3 17 10 0 16 -8 16 -22z m234 1 c20 -12
36 -25 36 -31 0 -20 -23 -98 -29 -98 -18 0 -71 42 -71 56 0 18 21 94 26 94 2
0 19 -9 38 -21z m516 -1 c0 -9 4 -8 10 2 9 13 11 13 20 0 14 -22 12 -30 -8
-30 -10 0 -24 -6 -32 -12 -12 -11 -12 -10 -2 4 9 11 10 18 2 23 -13 8 -13 25
0 25 6 0 10 -6 10 -12z m-769 -51 c-10 -9 -11 -8 -5 6 3 10 9 15 12 12 3 -3 0
-11 -7 -18z m389 -27 c43 -22 46 -29 29 -81 -6 -19 -13 -40 -15 -47 -3 -10
-10 -10 -31 3 -64 38 -63 36 -47 93 9 29 18 52 20 52 3 0 23 -9 44 -20z m-218
-63 c85 -53 85 -53 54 -130 l-11 -28 -75 51 c-84 58 -117 86 -87 74 9 -3 17
-2 17 4 0 5 -7 12 -15 16 -8 3 -15 17 -15 30 0 18 4 24 15 20 10 -4 15 0 15
11 0 18 -5 21 102 -48z m588 8 c0 -16 -27 -32 -37 -22 -3 4 -3 13 0 22 8 20
37 20 37 0z m-391 -139 c11 -12 11 -26 1 -66 -7 -27 -15 -50 -19 -50 -3 0 -23
11 -44 25 -39 27 -49 54 -19 56 10 0 12 3 5 6 -16 6 -16 14 -3 48 9 25 11 25
38 11 16 -8 34 -22 41 -30z m-318 -13 c13 -16 12 -17 -3 -4 -10 7 -18 15 -18
17 0 8 8 3 21 -13z m661 -465 c-7 -7 -12 -8 -12 -2 0 14 12 26 19 19 2 -3 -1
-11 -7 -17z m103 -170 c-16 -23 -16 -23 -9 7 9 41 18 53 22 33 2 -10 -4 -28
-13 -40z"/>
<path d="M775 1340 c3 -5 14 -10 23 -10 15 0 15 2 2 10 -20 13 -33 13 -25 0z"/>
<path d="M913 1345 c0 -8 4 -12 9 -9 5 3 6 10 3 15 -9 13 -12 11 -12 -6z"/>
<path d="M866 1183 c-6 -14 -5 -15 5 -6 7 7 10 15 7 18 -3 3 -9 -2 -12 -12z"/>
<path d="M997 1103 c-4 -3 -7 -11 -7 -17 0 -6 5 -5 12 2 6 6 9 14 7 17 -3 3
-9 2 -12 -2z"/>
</g>
</svg>
